<svg version="1.1" id="Layer_1" xmlns="http://www.w3.org/2000/svg" xmlns:xlink="http://www.w3.org/1999/xlink" x="0px" y="0px"
	 width="100%" viewBox="0 0 571 227" enable-background="new 0 0 571 227" xml:space="preserve">
<path fill="#FEFDFF" opacity="1.000000" stroke="none" 
	d="
M483.000000,0.999993 
	C512.658569,1.000000 542.317078,1.000000 571.981689,0.999999 
	C571.987793,76.637810 571.987793,152.275620 571.987793,227.956726 
	C381.747681,227.956726 191.495331,227.956726 1.121494,227.956726 
	C1.121494,152.435226 1.121494,76.870201 1.121494,1.000000 
	C159.354630,1.000000 317.709473,1.000000 476.410278,1.315218 
	C473.507385,4.441595 470.005707,7.024949 467.152313,10.192328 
	C466.203766,11.245249 466.117249,14.401030 466.997864,15.570230 
	C475.771759,27.219561 481.706818,27.431656 491.581055,16.814388 
	C491.806885,16.571577 492.012848,16.306786 492.259033,16.086939 
	C494.833832,13.787728 494.526978,11.569298 492.113708,9.369135 
	C489.065796,6.590397 486.037048,3.790657 483.000000,0.999993 
M122.464897,121.112305 
	C124.863327,119.284660 127.261765,117.457016 129.940186,115.416023 
	C129.940186,122.377342 130.487579,128.767899 129.716202,134.995087 
	C129.312271,138.255936 126.997337,141.559570 124.808006,144.241989 
	C122.572342,146.981171 119.571709,146.739182 117.108528,143.892822 
	C114.933128,141.379013 112.729301,138.889801 110.300713,136.118988 
	C104.619339,140.070129 98.968216,144.000214 93.120636,148.066940 
	C99.350014,157.266327 107.206741,163.159805 116.967918,166.380966 
	C119.006302,167.053665 121.753006,166.981003 123.738289,166.177307 
	C133.715530,162.138168 142.058594,155.365051 147.821289,146.632690 
	C151.011368,141.798676 151.822357,134.720459 151.910629,128.627823 
	C152.342636,98.810966 152.175522,68.985367 152.194244,39.162846 
	C152.194931,38.056217 151.926392,36.949417 151.786682,35.868698 
	C144.549454,35.868698 137.611877,35.868698 130.146591,35.868698 
	C130.146591,37.913475 130.146591,39.707180 130.146591,41.500881 
	C130.146545,58.661510 130.158813,75.822159 130.136566,92.982758 
	C130.131866,96.608238 124.987595,102.663521 121.805496,102.913414 
	C118.331696,103.186218 113.401649,98.375664 112.969864,94.056747 
	C112.722290,91.580307 112.868210,89.065521 112.815590,86.568443 
	C112.584137,75.585815 112.757019,64.573830 111.973274,53.630505 
	C111.385483,45.423244 107.439713,38.587437 100.477486,33.649315 
	C94.326859,37.939167 88.492401,42.008499 82.358040,46.287006 
	C89.270195,52.212761 90.714630,59.765827 90.746223,67.814163 
	C90.780899,76.644257 90.912048,85.478058 90.711479,94.303658 
	C90.561646,100.896393 92.839630,106.439575 97.412170,110.919434 
	C101.082268,114.515144 105.183083,117.678299 109.159729,120.952057 
	C113.213379,124.289215 117.472954,124.886200 122.464897,121.112305 
M383.344666,39.122646 
	C373.703308,31.149683 372.325348,31.103642 362.288483,38.650337 
	C359.696411,40.599304 357.197845,42.672565 354.980530,44.431541 
	C351.862793,40.353611 349.012085,36.624928 346.151367,32.883137 
	C339.542633,37.463825 333.717224,41.501591 327.599670,45.741810 
	C334.901154,52.968941 335.921295,61.812195 335.935730,70.943069 
	C335.972900,94.430412 335.896759,117.918243 336.029480,141.404953 
	C336.079224,150.204712 338.838898,158.124146 345.374146,164.311386 
	C346.328308,165.214752 348.656708,166.009827 349.484833,165.486694 
	C355.171722,161.894104 360.628387,157.937103 366.404419,153.927170 
	C354.918243,143.770233 358.767456,130.934235 357.903076,118.023376 
	C359.450043,119.247429 360.185028,119.824646 360.915436,120.407578 
	C371.859528,129.142166 374.796326,129.013016 385.074066,119.336174 
	C385.680206,118.765495 386.279205,118.185768 386.856964,117.586594 
	C393.040314,111.174324 398.948395,104.641747 399.040436,94.919167 
	C399.084564,90.257675 399.341217,85.596344 399.579102,80.938889 
	C400.400818,64.850868 398.242004,49.909363 383.344666,39.122646 
M49.836567,100.134720 
	C42.614998,106.011810 39.858192,106.116127 33.919445,99.308502 
	C29.930359,94.735802 26.785786,89.426369 23.071909,84.175880 
	C18.454462,87.313721 13.467402,90.848274 8.322505,94.135811 
	C5.858599,95.710220 5.509251,97.309807 6.754744,99.886047 
	C13.006231,112.816971 22.808350,121.887711 36.505047,126.058357 
	C39.912045,127.095795 44.997055,126.648232 47.847015,124.719894 
	C55.779972,119.352310 63.718578,113.572716 70.223900,106.617386 
	C79.224258,96.994431 77.089081,78.582558 66.823029,70.486938 
	C61.493614,66.284248 55.625156,62.743275 49.872162,59.105892 
	C44.398319,55.645008 38.638039,52.630283 33.226376,49.079975 
	C28.408447,45.919189 27.766882,37.573288 31.663467,33.116051 
	C36.285999,27.828419 42.107849,27.281637 46.576660,32.448582 
	C50.964359,37.521748 54.618526,43.229328 58.820114,48.966431 
	C63.422028,45.778622 68.362556,42.155041 73.518921,38.870274 
	C76.051476,37.256958 76.249428,35.676319 75.079941,33.136913 
	C68.850471,19.610306 58.244465,11.055837 44.327507,6.687443 
	C41.524479,5.807600 37.380657,6.390039 34.866989,7.939743 
	C28.115984,12.101810 21.411831,16.607342 15.590240,21.957125 
	C0.729424,35.613556 2.873125,56.517124 19.989931,67.042923 
	C28.047661,71.997940 36.533409,76.251472 44.729923,80.987770 
	C53.158405,85.858116 54.536842,90.689667 49.836567,100.134720 
M170.972092,55.948536 
	C171.434662,60.569370 172.250488,65.186714 172.296188,69.811668 
	C172.459213,86.305901 172.360550,102.802704 172.360901,119.298538 
	C172.360947,121.082626 172.360901,122.866714 172.360901,124.691071 
	C180.011597,124.691071 187.074249,124.691071 194.501694,124.691071 
	C194.501694,122.573502 194.501694,120.764160 194.501694,118.954811 
	C194.501785,100.792732 194.487289,82.630630 194.513519,64.468590 
	C194.519165,60.554249 199.964264,54.579456 203.808624,54.127987 
	C207.214294,53.728039 212.055496,58.401302 212.738297,62.889126 
	C212.961807,64.358246 212.866760,65.879906 212.871002,67.377670 
	C212.904495,79.207680 212.731018,91.042404 213.013962,102.866280 
	C213.243607,112.462646 216.983749,120.577156 224.848434,126.963135 
	C230.894806,122.783836 236.871353,118.652794 243.333069,114.186394 
	C235.059738,107.348511 234.689468,98.269974 234.959656,88.923042 
	C235.137726,82.763084 234.397491,76.524055 235.109467,70.442291 
	C236.951645,54.706123 228.996658,44.558998 216.921326,36.444134 
	C211.041473,32.492752 207.635956,32.417786 201.908340,36.499989 
	C198.429520,38.979424 195.129166,41.709259 192.045364,44.096882 
	C188.839966,40.275192 185.880676,36.746933 182.767517,33.035217 
	C176.252884,37.649513 170.253265,41.899021 164.578705,45.918297 
	C166.910233,49.408405 168.837494,52.293377 170.972092,55.948536 
M286.077301,122.661194 
	C289.480499,119.750458 292.883698,116.839714 296.194794,114.007767 
	C299.829010,118.341209 303.372284,122.566238 307.048065,126.949234 
	C312.523224,122.180634 317.261719,118.053673 322.191986,113.759659 
	C316.036102,109.755493 314.158600,104.448509 314.256409,97.702675 
	C314.531860,78.707481 314.352570,59.705692 314.352539,40.706505 
	C314.352539,38.935600 314.352539,37.164700 314.352539,35.201462 
	C308.672699,35.201462 303.554474,35.201462 298.196350,35.201462 
	C297.446991,38.277905 296.701874,41.337013 296.001709,44.211468 
	C290.865723,40.707508 286.293243,37.408340 281.533997,34.405094 
	C278.434662,32.449310 275.100403,32.581863 272.271423,35.078140 
	C267.787903,39.034351 263.324097,43.027863 259.077271,47.233158 
	C254.694427,51.573135 251.877869,56.807304 251.658630,63.136932 
	C251.376328,71.286873 251.269730,79.443611 250.923965,87.590485 
	C250.428848,99.256493 254.078766,109.160690 262.919739,116.994026 
	C264.664307,118.539734 266.279846,120.231110 268.024780,121.776375 
	C275.357391,128.269882 277.093567,128.388855 286.077301,122.661194 
M506.471344,50.749912 
	C507.751740,61.250244 515.583740,67.805901 521.994141,76.269043 
	C504.951599,88.328445 503.318237,105.885727 505.409363,124.695236 
	C512.598267,124.695236 519.664734,124.695236 526.983154,124.695236 
	C527.202637,111.335403 524.796509,97.457787 537.222595,87.532112 
	C549.719910,97.488174 546.872559,111.712502 547.533508,124.635437 
	C555.149841,124.635437 562.212830,124.635437 568.987732,124.635437 
	C571.522888,105.443420 568.650330,88.336891 551.870850,75.963867 
	C563.853333,64.381569 571.245117,51.890980 568.195190,35.269859 
	C561.141479,35.269859 554.060181,35.269859 546.602661,35.269859 
	C547.384155,46.517601 544.752991,56.469177 537.192566,65.272720 
	C529.645203,56.391338 526.861572,46.486160 528.014526,35.259438 
	C520.336609,35.259438 513.270752,35.259438 506.282410,35.259438 
	C506.282410,40.309616 506.282410,45.096695 506.471344,50.749912 
M437.334045,29.154379 
	C437.149689,19.000839 433.830536,10.314838 425.377960,3.583760 
	C419.274872,7.814903 413.242218,11.997229 406.986298,16.334335 
	C413.592285,22.830753 415.620789,30.191124 414.974243,38.456600 
	C412.098480,39.283722 409.602966,40.001484 407.335754,40.653576 
	C407.335754,44.995724 407.335754,48.909496 407.335754,53.181309 
	C410.112244,53.181309 412.549927,53.181309 415.360931,53.181309 
	C415.360931,66.506889 415.701172,79.478424 415.275177,92.424759 
	C414.737244,108.774223 423.723145,118.690979 436.802277,126.095772 
	C437.849854,126.688873 439.847107,126.815086 440.778046,126.204834 
	C446.315582,122.574768 451.669006,118.663940 457.245087,114.734077 
	C454.693176,113.271698 452.466125,112.174706 450.430695,110.795013 
	C444.657715,106.881813 438.770599,102.199524 438.351440,95.049164 
	C437.539429,81.196259 438.114075,67.262070 438.114075,52.883236 
	C444.061920,52.883236 449.980896,52.883236 455.990112,52.883236 
	C455.990112,46.952087 455.990112,41.500893 455.990112,35.482239 
	C449.894958,35.482239 443.976013,35.482239 437.800598,35.482239 
	C437.645264,33.314320 437.528961,31.690775 437.334045,29.154379 
M471.739868,115.653427 
	C474.438812,119.452950 477.137726,123.252464 479.934631,127.189865 
	C486.906067,122.245560 492.803711,118.062805 498.756439,113.841003 
	C491.843384,106.295204 490.730438,103.635963 490.657928,92.598694 
	C490.544067,75.268082 490.620300,57.936230 490.616119,40.604900 
	C490.615692,38.815784 490.616058,37.026669 490.616058,35.161873 
	C482.967682,35.161873 475.901215,35.161873 468.717316,35.161873 
	C468.598267,36.113270 468.447479,36.758080 468.447113,37.402973 
	C468.435669,58.067219 468.248230,78.734459 468.572693,99.393623 
	C468.654602,104.607559 470.379395,109.795685 471.739868,115.653427 
M500.381317,216.766083 
	C500.557617,211.313004 500.998077,205.849823 500.790344,200.411392 
	C500.697144,197.971664 499.966858,194.386642 498.331177,193.482605 
	C496.445435,192.440399 493.240662,193.784805 490.608734,194.092773 
	C490.649780,193.975159 490.690826,193.857559 490.731873,193.739944 
	C486.547882,193.551590 482.363892,193.363235 477.849854,193.160034 
	C477.849854,200.085907 477.777130,206.734634 477.916351,213.378906 
	C477.941650,214.585526 478.834045,215.773972 479.326080,216.970810 
	C479.959381,215.744324 481.061432,214.547821 481.142151,213.285980 
	C481.439087,208.643906 481.145020,203.953278 481.636383,199.340912 
	C481.784241,197.952896 483.762482,196.759857 484.902191,195.477509 
	C485.748810,196.863770 487.229095,198.207153 487.326294,199.644104 
	C487.651489,204.451370 487.358826,209.298126 487.594025,214.115524 
	C487.648743,215.236404 488.855377,216.301041 489.531982,217.391556 
	C490.045319,217.152405 490.558685,216.913239 491.072021,216.674088 
	C491.072021,213.371536 490.979797,210.065613 491.100281,206.767471 
	C491.202393,203.971786 491.219879,201.095963 491.937561,198.434326 
	C492.265991,197.216339 494.186829,196.427734 495.385468,195.444397 
	C495.980713,196.681442 497.034058,197.898178 497.089935,199.159119 
	C497.303467,203.978333 497.052521,208.819519 497.312805,213.634262 
	C497.375153,214.787201 498.740143,215.869705 500.381317,216.766083 
M193.255051,202.425797 
	C192.613113,202.600235 191.955444,202.731018 191.331726,202.955978 
	C186.004486,204.877274 183.711075,207.986572 184.669235,211.956345 
	C185.615417,215.876480 189.314987,217.935562 194.598114,217.328781 
	C195.877304,217.181854 197.085449,216.443939 198.365845,216.271240 
	C199.422379,216.128738 200.539490,216.401154 201.625931,216.523621 
	C202.832062,216.659576 204.033844,216.834000 205.103943,216.974167 
	C205.103943,210.982620 205.490326,205.483337 204.991425,200.065582 
	C204.525421,195.005051 200.926849,192.672241 195.952499,192.673508 
	C192.344681,192.674423 188.562302,192.516663 185.853867,197.417984 
	C189.962250,196.834381 192.926849,196.122620 195.904205,196.064438 
	C199.563675,195.992950 201.549149,198.071716 201.762390,201.880249 
	C199.020050,202.001770 196.546646,202.111359 193.255051,202.425797 
M295.834259,209.473297 
	C295.834259,207.197479 295.834259,204.921661 295.834259,202.171982 
	C298.835815,202.171982 301.288605,202.221954 303.738708,202.161911 
	C309.374756,202.023788 312.702759,199.042923 313.036194,193.906555 
	C313.379761,188.614044 310.165985,184.624680 304.625916,184.144516 
	C300.552032,183.791412 296.422974,184.075241 292.157074,184.075241 
	C292.157074,195.216675 292.157074,205.944504 292.157074,217.002563 
	C298.015106,217.062332 294.993835,212.675049 295.834259,209.473297 
M175.052750,189.977020 
	C176.083832,189.554962 177.114914,189.132889 178.145996,188.710815 
	C178.122818,188.042450 178.099640,187.374069 178.076447,186.705704 
	C174.551590,185.820648 171.051437,184.359863 167.495132,184.207199 
	C163.691055,184.043900 160.217987,185.940048 159.164230,190.028793 
	C158.066177,194.289413 160.121964,197.476120 163.778885,199.572723 
	C166.505661,201.136063 169.620560,202.130661 172.083008,204.007721 
	C173.654556,205.205658 175.564163,207.921982 175.145477,209.292603 
	C174.569504,211.178177 171.964020,213.659714 170.177078,213.701416 
	C166.667511,213.783279 163.122803,212.358154 158.731506,211.361053 
	C159.071976,212.313339 159.324173,214.702637 160.090652,214.880920 
	C164.137009,215.822113 168.368378,216.904480 172.427994,216.582321 
	C176.302048,216.274902 178.641113,213.123474 179.153656,209.012070 
	C179.657928,204.966965 177.807495,202.320206 174.316345,200.637924 
	C171.478973,199.270676 168.299347,198.382355 165.854019,196.517715 
	C164.336960,195.360886 163.004333,192.641617 163.270981,190.877975 
	C163.489944,189.429810 166.130890,187.448654 167.804077,187.340530 
	C170.040924,187.195999 172.380005,188.633057 175.052750,189.977020 
M89.377594,207.023376 
	C94.674713,205.830322 94.549820,210.290024 95.721481,213.238419 
	C97.179939,216.908585 97.079025,216.948685 100.642700,216.296371 
	C96.670990,205.265488 92.708801,194.261032 88.364014,182.193954 
	C83.998756,194.351257 80.007584,205.466705 75.999825,216.628357 
	C80.445061,217.974762 80.489868,214.668976 81.011162,212.537674 
	C82.011627,208.447342 83.891357,206.016769 89.377594,207.023376 
M366.043030,204.736588 
	C366.065796,199.847092 365.368835,194.914062 360.054138,193.302490 
	C355.558563,191.939301 350.610321,191.641922 347.116913,196.570984 
	C350.147186,196.728363 353.118011,196.032730 356.087158,196.039597 
	C360.492615,196.049820 361.677307,197.540665 361.606659,201.080444 
	C357.126892,202.241501 352.586151,202.762878 348.751404,204.689468 
	C346.841156,205.649155 344.889496,209.513428 345.373230,211.464676 
	C345.927795,213.701370 348.943146,216.408295 351.285065,216.860046 
	C354.532623,217.486496 358.148834,216.201920 361.556946,215.742325 
	C362.587646,216.154129 364.014984,216.724380 366.044952,217.535431 
	C366.044952,212.952011 366.044952,209.311295 366.043030,204.736588 
M231.723007,216.764435 
	C231.807114,211.326111 232.227829,205.865036 231.862015,200.457138 
	C231.599457,196.575790 229.293030,193.541504 225.064346,192.988998 
	C220.756195,192.426086 216.297638,191.870361 212.239624,197.419052 
	C216.432419,196.792572 219.295181,196.095993 222.177826,196.000671 
	C225.967804,195.875351 228.396561,197.587997 228.293915,201.087906 
	C223.596497,202.224380 218.996201,202.616516 215.181671,204.554932 
	C213.180923,205.571640 211.242065,209.567795 211.683823,211.725281 
	C212.120789,213.859222 215.383484,216.426208 217.779541,216.894196 
	C220.852173,217.494324 224.297302,216.187241 227.746811,215.677521 
	C228.443253,215.965515 229.668869,216.472321 231.723007,216.764435 
M428.687683,214.857391 
	C433.738922,218.185059 438.706299,218.334381 442.499146,215.272552 
	C446.867340,211.746231 448.384674,204.854645 445.992859,199.342896 
	C444.065125,194.900497 440.633545,192.651520 435.825928,192.666901 
	C431.027740,192.682251 427.498474,194.858963 425.776306,199.417496 
	C423.746216,204.791077 424.291321,209.849823 428.687683,214.857391 
M253.937027,196.992142 
	C255.176605,197.193726 256.416168,197.395309 257.655762,197.596893 
	C254.318787,192.113754 249.614151,191.958450 245.052231,193.114410 
	C243.068253,193.617126 240.467911,195.861328 240.167496,197.653244 
	C239.870728,199.423462 241.663330,202.265686 243.365326,203.478455 
	C245.859436,205.255569 249.197449,205.798141 251.956512,207.276276 
	C253.198975,207.941895 253.911743,209.596252 254.864838,210.801971 
	C253.529404,211.845551 252.137131,213.829666 250.869385,213.753052 
	C247.328583,213.539093 243.839340,212.471970 239.418228,211.551926 
	C237.855057,212.959473 238.309647,215.127426 241.619415,215.812668 
	C245.422134,216.599976 249.581116,217.365616 253.231628,216.552551 
	C255.426620,216.063660 258.091095,212.695770 258.400513,210.340057 
	C258.638794,208.526001 255.631409,206.184891 253.864899,204.264236 
	C253.267319,203.614502 252.010529,203.615097 251.123032,203.179810 
	C248.375610,201.832306 242.957581,202.146591 244.165955,197.909668 
	C245.351303,193.753540 249.972519,195.931870 253.937027,196.992142 
M409.339569,186.082825 
	C412.969147,182.522186 416.017853,184.127548 419.515076,187.164307 
	C419.879730,185.619537 420.187683,183.688721 419.387299,182.935303 
	C414.827362,178.642853 406.513733,181.200623 404.907623,187.263199 
	C404.447845,188.998718 404.306763,190.818665 404.008881,192.665863 
	C402.330872,192.909775 400.741150,193.140854 399.151459,193.371918 
	C399.016022,193.852203 398.880615,194.332474 398.745178,194.812744 
	C400.487885,195.432892 402.230591,196.053024 404.322449,196.797409 
	C404.322449,202.454803 404.200714,208.264160 404.430878,214.059540 
	C404.473999,215.146118 405.924225,216.176834 406.725098,217.233322 
	C407.246033,216.963898 407.766968,216.694473 408.287903,216.425049 
	C408.287903,209.677231 408.287903,202.929398 408.287903,196.022018 
	C410.600098,196.022018 412.446991,196.173004 414.245026,195.942627 
	C414.900940,195.858551 415.440613,194.867416 416.033356,194.290115 
	C415.465851,193.853378 414.925140,193.089096 414.325897,193.040054 
	C412.367279,192.879684 410.387329,192.979874 407.789825,192.979874 
	C408.263062,190.576035 408.633789,188.693054 409.339569,186.082825 
M327.378967,181.991028 
	C324.956635,181.991028 322.534302,181.991028 319.734344,181.991028 
	C320.746979,187.065323 324.778748,183.695389 326.959869,185.904816 
	C326.959869,190.102585 326.959869,194.733307 326.959869,199.364029 
	C326.959869,204.142456 326.959869,208.920883 326.959869,213.043503 
	C324.567322,215.292938 320.589691,211.901184 319.577118,217.003372 
	C325.277985,217.003372 330.561829,217.055573 335.842133,216.941971 
	C336.559174,216.926544 337.258362,216.080811 337.965820,215.619537 
	C337.166931,215.077820 336.426086,214.229385 335.555817,214.064575 
	C334.168976,213.801910 332.695984,213.994385 331.610596,213.994385 
	C331.184326,213.302673 331.027405,213.166656 331.026703,213.029846 
	C330.981934,204.034866 330.975616,195.039627 330.894989,186.045029 
	C330.878784,184.242233 331.746521,181.694794 327.378967,181.991028 
M388.326263,216.969879 
	C390.119995,216.110626 393.422394,216.418335 391.616150,212.490845 
	C390.916473,212.742035 390.317963,212.943192 389.729462,213.170288 
	C384.130371,215.331055 381.852783,214.061707 381.502869,208.249313 
	C381.267944,204.347488 381.458160,200.420090 381.458160,196.160080 
	C384.307281,196.160080 386.128967,196.344879 387.882263,196.078857 
	C388.707092,195.953690 389.400421,194.961685 390.153351,194.362488 
	C389.435059,193.905014 388.748108,193.126678 387.992340,193.052872 
	C386.062469,192.864426 384.101898,192.990082 382.180756,192.990082 
	C382.180756,190.549454 382.180756,188.599060 382.180756,186.629410 
	C376.486938,185.541138 378.881927,190.516830 377.946930,192.173096 
	C375.916595,193.017899 374.411011,193.644363 372.905426,194.270828 
	C374.471954,195.238846 376.038452,196.206863 377.801575,197.296356 
	C377.801575,198.789474 377.802155,200.605499 377.801422,202.421509 
	C377.800659,204.411713 377.730865,206.404602 377.809326,208.391647 
	C378.107819,215.952820 380.126984,217.725266 388.326263,216.969879 
M455.255646,204.511856 
	C455.256378,207.667465 455.324829,210.824921 455.238892,213.978165 
	C455.151855,217.171265 456.502899,217.650391 459.244629,216.329575 
	C459.244629,212.226181 459.244110,208.245987 459.244781,204.265793 
	C459.245789,198.302856 464.769196,192.931915 472.238312,198.314865 
	C472.238312,196.614044 472.732635,194.675339 472.159058,194.277939 
	C468.061554,191.438889 464.029938,192.440262 461.055298,194.648071 
	C458.909576,193.907013 457.366791,193.374191 455.255768,192.645111 
	C455.255768,196.915726 455.255768,200.222229 455.255646,204.511856 
M113.280457,203.542664 
	C113.280457,206.955429 113.280457,210.368210 113.280457,213.244644 
	C110.520699,213.990723 108.612801,214.506500 106.704895,215.022293 
	C106.847389,215.592514 106.989876,216.162750 107.132370,216.732986 
	C112.358315,216.732986 117.584267,216.732986 122.810211,216.732986 
	C122.968567,216.199188 123.126930,215.665390 123.285286,215.131592 
	C121.427986,214.558731 119.570686,213.985870 117.150208,213.239304 
	C117.150208,206.858536 117.150208,200.128082 117.150208,193.337555 
	C113.619522,193.337555 110.588272,193.337555 107.557014,193.337555 
	C107.422386,193.878616 107.287750,194.419678 107.153114,194.960724 
	C109.089661,195.523087 111.026199,196.085434 113.280602,196.740082 
	C113.280602,198.623291 113.280602,200.594437 113.280457,203.542664 
z"/>
<path fill="#5B05DA" opacity="1.000000" stroke="none" 
	d="
M482.571533,0.999993 
	C486.037048,3.790657 489.065796,6.590397 492.113708,9.369135 
	C494.526978,11.569298 494.833832,13.787728 492.259033,16.086939 
	C492.012848,16.306786 491.806885,16.571577 491.581055,16.814388 
	C481.706818,27.431656 475.771759,27.219561 466.997864,15.570230 
	C466.117249,14.401030 466.203766,11.245249 467.152313,10.192328 
	C470.005707,7.024949 473.507385,4.441595 476.878113,1.315218 
	C478.714355,1.000000 480.428711,1.000000 482.571533,0.999993 
z"/>
<path fill="#5A03D9" opacity="1.000000" stroke="none" 
	d="
M122.174011,121.337738 
	C117.472954,124.886200 113.213379,124.289215 109.159729,120.952057 
	C105.183083,117.678299 101.082268,114.515144 97.412170,110.919434 
	C92.839630,106.439575 90.561646,100.896393 90.711479,94.303658 
	C90.912048,85.478058 90.780899,76.644257 90.746223,67.814163 
	C90.714630,59.765827 89.270195,52.212761 82.358040,46.287006 
	C88.492401,42.008499 94.326859,37.939167 100.477486,33.649315 
	C107.439713,38.587437 111.385483,45.423244 111.973274,53.630505 
	C112.757019,64.573830 112.584137,75.585815 112.815590,86.568443 
	C112.868210,89.065521 112.722290,91.580307 112.969864,94.056747 
	C113.401649,98.375664 118.331696,103.186218 121.805496,102.913414 
	C124.987595,102.663521 130.131866,96.608238 130.136566,92.982758 
	C130.158813,75.822159 130.146545,58.661510 130.146591,41.500881 
	C130.146591,39.707180 130.146591,37.913475 130.146591,35.868698 
	C137.611877,35.868698 144.549454,35.868698 151.786682,35.868698 
	C151.926392,36.949417 152.194931,38.056217 152.194244,39.162846 
	C152.175522,68.985367 152.342636,98.810966 151.910629,128.627823 
	C151.822357,134.720459 151.011368,141.798676 147.821289,146.632690 
	C142.058594,155.365051 133.715530,162.138168 123.738289,166.177307 
	C121.753006,166.981003 119.006302,167.053665 116.967918,166.380966 
	C107.206741,163.159805 99.350014,157.266327 93.120636,148.066940 
	C98.968216,144.000214 104.619339,140.070129 110.300713,136.118988 
	C112.729301,138.889801 114.933128,141.379013 117.108528,143.892822 
	C119.571709,146.739182 122.572342,146.981171 124.808006,144.241989 
	C126.997337,141.559570 129.312271,138.255936 129.716202,134.995087 
	C130.487579,128.767899 129.940186,122.377342 129.940186,115.416023 
	C127.261765,117.457016 124.863327,119.284660 122.174011,121.337738 
z"/>
<path fill="#5A02D9" opacity="1.000000" stroke="none" 
	d="
M383.608643,39.360920 
	C398.242004,49.909363 400.400818,64.850868 399.579102,80.938889 
	C399.341217,85.596344 399.084564,90.257675 399.040436,94.919167 
	C398.948395,104.641747 393.040314,111.174324 386.856964,117.586594 
	C386.279205,118.185768 385.680206,118.765495 385.074066,119.336174 
	C374.796326,129.013016 371.859528,129.142166 360.915436,120.407578 
	C360.185028,119.824646 359.450043,119.247429 357.903076,118.023376 
	C358.767456,130.934235 354.918243,143.770233 366.404419,153.927170 
	C360.628387,157.937103 355.171722,161.894104 349.484833,165.486694 
	C348.656708,166.009827 346.328308,165.214752 345.374146,164.311386 
	C338.838898,158.124146 336.079224,150.204712 336.029480,141.404953 
	C335.896759,117.918243 335.972900,94.430412 335.935730,70.943069 
	C335.921295,61.812195 334.901154,52.968941 327.599670,45.741810 
	C333.717224,41.501591 339.542633,37.463825 346.151367,32.883137 
	C349.012085,36.624928 351.862793,40.353611 354.980530,44.431541 
	C357.197845,42.672565 359.696411,40.599304 362.288483,38.650337 
	C372.325348,31.103642 373.703308,31.149683 383.608643,39.360920 
M378.230438,79.502342 
	C377.821625,73.874718 377.845337,68.170082 376.861389,62.644886 
	C376.130280,58.539520 373.928314,54.513451 369.001801,54.192329 
	C364.755219,53.915527 358.645721,59.513275 358.516785,63.975384 
	C358.209473,74.608559 358.175720,85.262634 358.487854,95.894875 
	C358.630768,100.762276 364.742981,106.355980 369.189514,105.975784 
	C374.443329,105.526558 376.194244,101.081398 376.935608,96.865028 
	C377.879059,91.499069 377.844208,85.961082 378.230438,79.502342 
z"/>
<path fill="#5A03D9" opacity="1.000000" stroke="none" 
	d="
M50.086823,99.829773 
	C54.536842,90.689667 53.158405,85.858116 44.729923,80.987770 
	C36.533409,76.251472 28.047661,71.997940 19.989931,67.042923 
	C2.873125,56.517124 0.729424,35.613556 15.590240,21.957125 
	C21.411831,16.607342 28.115984,12.101810 34.866989,7.939743 
	C37.380657,6.390039 41.524479,5.807600 44.327507,6.687443 
	C58.244465,11.055837 68.850471,19.610306 75.079941,33.136913 
	C76.249428,35.676319 76.051476,37.256958 73.518921,38.870274 
	C68.362556,42.155041 63.422028,45.778622 58.820114,48.966431 
	C54.618526,43.229328 50.964359,37.521748 46.576660,32.448582 
	C42.107849,27.281637 36.285999,27.828419 31.663467,33.116051 
	C27.766882,37.573288 28.408447,45.919189 33.226376,49.079975 
	C38.638039,52.630283 44.398319,55.645008 49.872162,59.105892 
	C55.625156,62.743275 61.493614,66.284248 66.823029,70.486938 
	C77.089081,78.582558 79.224258,96.994431 70.223900,106.617386 
	C63.718578,113.572716 55.779972,119.352310 47.847015,124.719894 
	C44.997055,126.648232 39.912045,127.095795 36.505047,126.058357 
	C22.808350,121.887711 13.006231,112.816971 6.754744,99.886047 
	C5.509251,97.309807 5.858599,95.710220 8.322505,94.135811 
	C13.467402,90.848274 18.454462,87.313721 23.071909,84.175880 
	C26.785786,89.426369 29.930359,94.735802 33.919445,99.308502 
	C39.858192,106.116127 42.614998,106.011810 50.086823,99.829773 
z"/>
<path fill="#5B04D9" opacity="1.000000" stroke="none" 
	d="
M170.868423,55.563438 
	C168.837494,52.293377 166.910233,49.408405 164.578705,45.918297 
	C170.253265,41.899021 176.252884,37.649513 182.767517,33.035217 
	C185.880676,36.746933 188.839966,40.275192 192.045364,44.096882 
	C195.129166,41.709259 198.429520,38.979424 201.908340,36.499989 
	C207.635956,32.417786 211.041473,32.492752 216.921326,36.444134 
	C228.996658,44.558998 236.951645,54.706123 235.109467,70.442291 
	C234.397491,76.524055 235.137726,82.763084 234.959656,88.923042 
	C234.689468,98.269974 235.059738,107.348511 243.333069,114.186394 
	C236.871353,118.652794 230.894806,122.783836 224.848434,126.963135 
	C216.983749,120.577156 213.243607,112.462646 213.013962,102.866280 
	C212.731018,91.042404 212.904495,79.207680 212.871002,67.377670 
	C212.866760,65.879906 212.961807,64.358246 212.738297,62.889126 
	C212.055496,58.401302 207.214294,53.728039 203.808624,54.127987 
	C199.964264,54.579456 194.519165,60.554249 194.513519,64.468590 
	C194.487289,82.630630 194.501785,100.792732 194.501694,118.954811 
	C194.501694,120.764160 194.501694,122.573502 194.501694,124.691071 
	C187.074249,124.691071 180.011597,124.691071 172.360901,124.691071 
	C172.360901,122.866714 172.360947,121.082626 172.360901,119.298538 
	C172.360550,102.802704 172.459213,86.305901 172.296188,69.811668 
	C172.250488,65.186714 171.434662,60.569370 170.868423,55.563438 
z"/>
<path fill="#5A02D9" opacity="1.000000" stroke="none" 
	d="
M285.785706,122.880539 
	C277.093567,128.388855 275.357391,128.269882 268.024780,121.776375 
	C266.279846,120.231110 264.664307,118.539734 262.919739,116.994026 
	C254.078766,109.160690 250.428848,99.256493 250.923965,87.590485 
	C251.269730,79.443611 251.376328,71.286873 251.658630,63.136932 
	C251.877869,56.807304 254.694427,51.573135 259.077271,47.233158 
	C263.324097,43.027863 267.787903,39.034351 272.271423,35.078140 
	C275.100403,32.581863 278.434662,32.449310 281.533997,34.405094 
	C286.293243,37.408340 290.865723,40.707508 296.001709,44.211468 
	C296.701874,41.337013 297.446991,38.277905 298.196350,35.201462 
	C303.554474,35.201462 308.672699,35.201462 314.352539,35.201462 
	C314.352539,37.164700 314.352539,38.935600 314.352539,40.706505 
	C314.352570,59.705692 314.531860,78.707481 314.256409,97.702675 
	C314.158600,104.448509 316.036102,109.755493 322.191986,113.759659 
	C317.261719,118.053673 312.523224,122.180634 307.048065,126.949234 
	C303.372284,122.566238 299.829010,118.341209 296.194794,114.007767 
	C292.883698,116.839714 289.480499,119.750458 285.785706,122.880539 
M275.352264,58.012562 
	C269.980347,71.540657 271.287567,85.368973 274.054688,99.086273 
	C274.760864,102.586990 277.143768,106.394897 281.992889,105.958511 
	C286.481934,105.554520 291.711304,100.463463 291.793152,96.099777 
	C291.995636,85.304832 292.070068,74.499374 291.812012,63.707325 
	C291.684357,58.367188 287.131744,56.047516 282.973602,54.741741 
	C281.061798,54.141376 278.240387,56.437515 275.352264,58.012562 
z"/>
<path fill="#5A03D9" opacity="1.000000" stroke="none" 
	d="
M506.376892,50.316845 
	C506.282410,45.096695 506.282410,40.309616 506.282410,35.259438 
	C513.270752,35.259438 520.336609,35.259438 528.014526,35.259438 
	C526.861572,46.486160 529.645203,56.391338 537.192566,65.272720 
	C544.752991,56.469177 547.384155,46.517601 546.602661,35.269859 
	C554.060181,35.269859 561.141479,35.269859 568.195190,35.269859 
	C571.245117,51.890980 563.853333,64.381569 551.870850,75.963867 
	C568.650330,88.336891 571.522888,105.443420 568.987732,124.635437 
	C562.212830,124.635437 555.149841,124.635437 547.533508,124.635437 
	C546.872559,111.712502 549.719910,97.488174 537.222595,87.532112 
	C524.796509,97.457787 527.202637,111.335403 526.983154,124.695236 
	C519.664734,124.695236 512.598267,124.695236 505.409363,124.695236 
	C503.318237,105.885727 504.951599,88.328445 521.994141,76.269043 
	C515.583740,67.805901 507.751740,61.250244 506.376892,50.316845 
z"/>
<path fill="#5B04D9" opacity="1.000000" stroke="none" 
	d="
M437.373352,29.610804 
	C437.528961,31.690775 437.645264,33.314320 437.800598,35.482239 
	C443.976013,35.482239 449.894958,35.482239 455.990112,35.482239 
	C455.990112,41.500893 455.990112,46.952087 455.990112,52.883236 
	C449.980896,52.883236 444.061920,52.883236 438.114075,52.883236 
	C438.114075,67.262070 437.539429,81.196259 438.351440,95.049164 
	C438.770599,102.199524 444.657715,106.881813 450.430695,110.795013 
	C452.466125,112.174706 454.693176,113.271698 457.245087,114.734077 
	C451.669006,118.663940 446.315582,122.574768 440.778046,126.204834 
	C439.847107,126.815086 437.849854,126.688873 436.802277,126.095772 
	C423.723145,118.690979 414.737244,108.774223 415.275177,92.424759 
	C415.701172,79.478424 415.360931,66.506889 415.360931,53.181309 
	C412.549927,53.181309 410.112244,53.181309 407.335754,53.181309 
	C407.335754,48.909496 407.335754,44.995724 407.335754,40.653576 
	C409.602966,40.001484 412.098480,39.283722 414.974243,38.456600 
	C415.620789,30.191124 413.592285,22.830753 406.986298,16.334335 
	C413.242218,11.997229 419.274872,7.814903 425.377960,3.583760 
	C433.830536,10.314838 437.149689,19.000839 437.373352,29.610804 
z"/>
<path fill="#5D09DA" opacity="1.000000" stroke="none" 
	d="
M471.544556,115.324554 
	C470.379395,109.795685 468.654602,104.607559 468.572693,99.393623 
	C468.248230,78.734459 468.435669,58.067219 468.447113,37.402973 
	C468.447479,36.758080 468.598267,36.113270 468.717316,35.161873 
	C475.901215,35.161873 482.967682,35.161873 490.616058,35.161873 
	C490.616058,37.026669 490.615692,38.815784 490.616119,40.604900 
	C490.620300,57.936230 490.544067,75.268082 490.657928,92.598694 
	C490.730438,103.635963 491.843384,106.295204 498.756439,113.841003 
	C492.803711,118.062805 486.906067,122.245560 479.934631,127.189865 
	C477.137726,123.252464 474.438812,119.452950 471.544556,115.324554 
z"/>
<path fill="#6010DB" opacity="1.000000" stroke="none" 
	d="
M499.943665,216.875351 
	C498.740143,215.869705 497.375153,214.787201 497.312805,213.634262 
	C497.052521,208.819519 497.303467,203.978333 497.089935,199.159119 
	C497.034058,197.898178 495.980713,196.681442 495.385468,195.444397 
	C494.186829,196.427734 492.265991,197.216339 491.937561,198.434326 
	C491.219879,201.095963 491.202393,203.971786 491.100281,206.767471 
	C490.979797,210.065613 491.072021,213.371536 491.072021,216.674088 
	C490.558685,216.913239 490.045319,217.152405 489.531982,217.391556 
	C488.855377,216.301041 487.648743,215.236404 487.594025,214.115524 
	C487.358826,209.298126 487.651489,204.451370 487.326294,199.644104 
	C487.229095,198.207153 485.748810,196.863770 484.902191,195.477509 
	C483.762482,196.759857 481.784241,197.952896 481.636383,199.340912 
	C481.145020,203.953278 481.439087,208.643906 481.142151,213.285980 
	C481.061432,214.547821 479.959381,215.744324 479.326111,216.970825 
	C478.834045,215.773972 477.941650,214.585526 477.916351,213.378906 
	C477.777130,206.734634 477.849854,200.085907 477.849854,193.160034 
	C482.363892,193.363235 486.547882,193.551590 490.731873,193.739944 
	C490.690826,193.857559 490.649780,193.975159 490.608734,194.092773 
	C493.240662,193.784805 496.445435,192.440399 498.331177,193.482605 
	C499.966858,194.386642 500.697144,197.971664 500.790344,200.411392 
	C500.998077,205.849823 500.557617,211.313004 499.943665,216.875351 
z"/>
<path fill="#6315DC" opacity="1.000000" stroke="none" 
	d="
M193.664154,202.323364 
	C196.546646,202.111359 199.020050,202.001770 201.762390,201.880249 
	C201.549149,198.071716 199.563675,195.992950 195.904205,196.064438 
	C192.926849,196.122620 189.962250,196.834381 185.853867,197.417984 
	C188.562302,192.516663 192.344681,192.674423 195.952499,192.673508 
	C200.926849,192.672241 204.525421,195.005051 204.991425,200.065582 
	C205.490326,205.483337 205.103943,210.982620 205.103943,216.974167 
	C204.033844,216.834000 202.832062,216.659576 201.625931,216.523621 
	C200.539490,216.401154 199.422379,216.128738 198.365845,216.271240 
	C197.085449,216.443939 195.877304,217.181854 194.598114,217.328781 
	C189.314987,217.935562 185.615417,215.876480 184.669235,211.956345 
	C183.711075,207.986572 186.004486,204.877274 191.331726,202.955978 
	C191.955444,202.731018 192.613113,202.600235 193.664154,202.323364 
M188.255051,209.825363 
	C188.092422,214.618668 191.502014,214.596375 194.720505,214.382324 
	C199.373215,214.072876 201.778885,210.837387 201.678589,205.025772 
	C196.946686,205.445496 191.674637,203.465164 188.255051,209.825363 
z"/>
<path fill="#5F0EDB" opacity="1.000000" stroke="none" 
	d="
M295.834229,209.946579 
	C294.993835,212.675049 298.015106,217.062332 292.157074,217.002563 
	C292.157074,205.944504 292.157074,195.216675 292.157074,184.075241 
	C296.422974,184.075241 300.552032,183.791412 304.625916,184.144516 
	C310.165985,184.624680 313.379761,188.614044 313.036194,193.906555 
	C312.702759,199.042923 309.374756,202.023788 303.738708,202.161911 
	C301.288605,202.221954 298.835815,202.171982 295.834259,202.171982 
	C295.834259,204.921661 295.834259,207.197479 295.834229,209.946579 
M295.812897,194.489197 
	C295.909943,195.905533 296.006989,197.321884 296.201935,200.167374 
	C300.700989,198.771820 304.729004,197.910919 308.285645,196.116013 
	C309.067841,195.721283 309.017334,191.309769 307.894043,189.958435 
	C304.773560,186.204498 300.264618,187.502640 295.812775,187.602798 
	C295.812775,189.942703 295.812775,191.743454 295.812897,194.489197 
z"/>
<path fill="#600FDB" opacity="1.000000" stroke="none" 
	d="
M174.863953,189.683975 
	C172.380005,188.633057 170.040924,187.195999 167.804077,187.340530 
	C166.130890,187.448654 163.489944,189.429810 163.270981,190.877975 
	C163.004333,192.641617 164.336960,195.360886 165.854019,196.517715 
	C168.299347,198.382355 171.478973,199.270676 174.316345,200.637924 
	C177.807495,202.320206 179.657928,204.966965 179.153656,209.012070 
	C178.641113,213.123474 176.302048,216.274902 172.427994,216.582321 
	C168.368378,216.904480 164.137009,215.822113 160.090652,214.880920 
	C159.324173,214.702637 159.071976,212.313339 158.731506,211.361053 
	C163.122803,212.358154 166.667511,213.783279 170.177078,213.701416 
	C171.964020,213.659714 174.569504,211.178177 175.145477,209.292603 
	C175.564163,207.921982 173.654556,205.205658 172.083008,204.007721 
	C169.620560,202.130661 166.505661,201.136063 163.778885,199.572723 
	C160.121964,197.476120 158.066177,194.289413 159.164230,190.028793 
	C160.217987,185.940048 163.691055,184.043900 167.495132,184.207199 
	C171.051437,184.359863 174.551590,185.820648 178.076447,186.705704 
	C178.099640,187.374069 178.122818,188.042450 178.145996,188.710815 
	C177.114914,189.132889 176.083832,189.554962 174.863953,189.683975 
z"/>
<path fill="#600FDB" opacity="1.000000" stroke="none" 
	d="
M88.933617,207.023376 
	C83.891357,206.016769 82.011627,208.447342 81.011162,212.537674 
	C80.489868,214.668976 80.445061,217.974762 75.999825,216.628357 
	C80.007584,205.466705 83.998756,194.351257 88.364014,182.193954 
	C92.708801,194.261032 96.670990,205.265488 100.642700,216.296371 
	C97.079025,216.948685 97.179939,216.908585 95.721481,213.238419 
	C94.549820,210.290024 94.674713,205.830322 88.933617,207.023376 
M84.456093,202.906143 
	C86.905296,203.377869 89.354500,203.849579 92.687408,204.491501 
	C91.107071,199.883850 89.903725,196.375366 88.308350,191.723862 
	C86.847801,196.020401 85.800697,199.100677 84.456093,202.906143 
z"/>
<path fill="#5F0FDB" opacity="1.000000" stroke="none" 
	d="
M366.044006,205.203583 
	C366.044952,209.311295 366.044952,212.952011 366.044952,217.535431 
	C364.014984,216.724380 362.587646,216.154129 361.556946,215.742325 
	C358.148834,216.201920 354.532623,217.486496 351.285065,216.860046 
	C348.943146,216.408295 345.927795,213.701370 345.373230,211.464676 
	C344.889496,209.513428 346.841156,205.649155 348.751404,204.689468 
	C352.586151,202.762878 357.126892,202.241501 361.606659,201.080444 
	C361.677307,197.540665 360.492615,196.049820 356.087158,196.039597 
	C353.118011,196.032730 350.147186,196.728363 347.116913,196.570984 
	C350.610321,191.641922 355.558563,191.939301 360.054138,193.302490 
	C365.368835,194.914062 366.065796,199.847092 366.044006,205.203583 
M352.574768,205.741364 
	C349.520203,206.722717 347.739288,209.244141 349.256104,211.769562 
	C350.231171,213.392960 353.628967,214.397263 355.851471,214.257462 
	C360.181793,213.985123 362.264313,210.581726 362.206177,204.947693 
	C359.243500,205.100586 356.293518,205.252823 352.574768,205.741364 
z"/>
<path fill="#5F0CDB" opacity="1.000000" stroke="none" 
	d="
M231.308746,216.871780 
	C229.668869,216.472321 228.443253,215.965515 227.746811,215.677521 
	C224.297302,216.187241 220.852173,217.494324 217.779541,216.894196 
	C215.383484,216.426208 212.120789,213.859222 211.683823,211.725281 
	C211.242065,209.567795 213.180923,205.571640 215.181671,204.554932 
	C218.996201,202.616516 223.596497,202.224380 228.293915,201.087906 
	C228.396561,197.587997 225.967804,195.875351 222.177826,196.000671 
	C219.295181,196.095993 216.432419,196.792572 212.239624,197.419052 
	C216.297638,191.870361 220.756195,192.426086 225.064346,192.988998 
	C229.293030,193.541504 231.599457,196.575790 231.862015,200.457138 
	C232.227829,205.865036 231.807114,211.326111 231.308746,216.871780 
M219.687653,214.569061 
	C226.371628,213.874680 228.543320,211.636963 228.538956,204.719940 
	C225.104095,205.120773 221.590759,205.063461 218.439117,206.102890 
	C216.945297,206.595551 215.424927,209.125931 215.286545,210.843506 
	C215.198624,211.934692 217.629715,213.228851 219.687653,214.569061 
z"/>
<path fill="#5F0EDB" opacity="1.000000" stroke="none" 
	d="
M428.421143,214.594177 
	C424.291321,209.849823 423.746216,204.791077 425.776306,199.417496 
	C427.498474,194.858963 431.027740,192.682251 435.825928,192.666901 
	C440.633545,192.651520 444.065125,194.900497 445.992859,199.342896 
	C448.384674,204.854645 446.867340,211.746231 442.499146,215.272552 
	C438.706299,218.334381 433.738922,218.185059 428.421143,214.594177 
M429.478912,209.492935 
	C433.724152,215.569565 439.451080,215.780869 441.925110,209.620575 
	C442.942902,207.086334 443.125366,203.459229 442.050934,201.063187 
	C441.051544,198.834412 437.684540,196.046310 435.708282,196.293182 
	C433.320526,196.591476 430.714996,199.486954 429.316986,201.902618 
	C428.317719,203.629242 429.151215,206.416534 429.478912,209.492935 
z"/>
<path fill="#6112DB" opacity="1.000000" stroke="none" 
	d="
M253.593140,196.810745 
	C249.972519,195.931870 245.351303,193.753540 244.165955,197.909668 
	C242.957581,202.146591 248.375610,201.832306 251.123032,203.179810 
	C252.010529,203.615097 253.267319,203.614502 253.864899,204.264236 
	C255.631409,206.184891 258.638794,208.526001 258.400513,210.340057 
	C258.091095,212.695770 255.426620,216.063660 253.231628,216.552551 
	C249.581116,217.365616 245.422134,216.599976 241.619415,215.812668 
	C238.309647,215.127426 237.855057,212.959473 239.418228,211.551926 
	C243.839340,212.471970 247.328583,213.539093 250.869385,213.753052 
	C252.137131,213.829666 253.529404,211.845551 254.864838,210.801971 
	C253.911743,209.596252 253.198975,207.941895 251.956512,207.276276 
	C249.197449,205.798141 245.859436,205.255569 243.365326,203.478455 
	C241.663330,202.265686 239.870728,199.423462 240.167496,197.653244 
	C240.467911,195.861328 243.068253,193.617126 245.052231,193.114410 
	C249.614151,191.958450 254.318787,192.113754 257.655762,197.596893 
	C256.416168,197.395309 255.176605,197.193726 253.593140,196.810745 
z"/>
<path fill="#6315DC" opacity="1.000000" stroke="none" 
	d="
M409.172028,186.446442 
	C408.633789,188.693054 408.263062,190.576035 407.789825,192.979874 
	C410.387329,192.979874 412.367279,192.879684 414.325897,193.040054 
	C414.925140,193.089096 415.465851,193.853378 416.033356,194.290115 
	C415.440613,194.867416 414.900940,195.858551 414.245026,195.942627 
	C412.446991,196.173004 410.600098,196.022018 408.287903,196.022018 
	C408.287903,202.929398 408.287903,209.677231 408.287903,216.425049 
	C407.766968,216.694473 407.246033,216.963898 406.725098,217.233322 
	C405.924225,216.176834 404.473999,215.146118 404.430878,214.059540 
	C404.200714,208.264160 404.322449,202.454803 404.322449,196.797409 
	C402.230591,196.053024 400.487885,195.432892 398.745178,194.812744 
	C398.880615,194.332474 399.016022,193.852203 399.151459,193.371918 
	C400.741150,193.140854 402.330872,192.909775 404.008881,192.665863 
	C404.306763,190.818665 404.447845,188.998718 404.907623,187.263199 
	C406.513733,181.200623 414.827362,178.642853 419.387299,182.935303 
	C420.187683,183.688721 419.879730,185.619537 419.515076,187.164307 
	C416.017853,184.127548 412.969147,182.522186 409.172028,186.446442 
z"/>
<path fill="#5C07DA" opacity="1.000000" stroke="none" 
	d="
M327.845825,181.992218 
	C331.746521,181.694794 330.878784,184.242233 330.894989,186.045029 
	C330.975616,195.039627 330.981934,204.034866 331.026703,213.029846 
	C331.027405,213.166656 331.184326,213.302673 331.610596,213.994385 
	C332.695984,213.994385 334.168976,213.801910 335.555817,214.064575 
	C336.426086,214.229385 337.166931,215.077820 337.965820,215.619537 
	C337.258362,216.080811 336.559174,216.926544 335.842133,216.941971 
	C330.561829,217.055573 325.277985,217.003372 319.577118,217.003372 
	C320.589691,211.901184 324.567322,215.292938 326.959869,213.043503 
	C326.959869,208.920883 326.959869,204.142456 326.959869,199.364029 
	C326.959869,194.733307 326.959869,190.102585 326.959869,185.904816 
	C324.778748,183.695389 320.746979,187.065323 319.734344,181.991028 
	C322.534302,181.991028 324.956635,181.991028 327.845825,181.992218 
z"/>
<path fill="#5E0CDA" opacity="1.000000" stroke="none" 
	d="
M387.962128,217.022598 
	C380.126984,217.725266 378.107819,215.952820 377.809326,208.391647 
	C377.730865,206.404602 377.800659,204.411713 377.801422,202.421509 
	C377.802155,200.605499 377.801575,198.789474 377.801575,197.296356 
	C376.038452,196.206863 374.471954,195.238846 372.905426,194.270813 
	C374.411011,193.644363 375.916595,193.017899 377.946930,192.173096 
	C378.881927,190.516830 376.486938,185.541138 382.180756,186.629410 
	C382.180756,188.599060 382.180756,190.549454 382.180756,192.990082 
	C384.101898,192.990082 386.062469,192.864426 387.992340,193.052872 
	C388.748108,193.126678 389.435059,193.905014 390.153351,194.362488 
	C389.400421,194.961685 388.707092,195.953690 387.882263,196.078857 
	C386.128967,196.344879 384.307281,196.160080 381.458160,196.160080 
	C381.458160,200.420090 381.267944,204.347488 381.502869,208.249313 
	C381.852783,214.061707 384.130371,215.331055 389.729462,213.170288 
	C390.317963,212.943192 390.916473,212.742035 391.616150,212.490845 
	C393.422394,216.418335 390.119995,216.110626 387.962128,217.022598 
z"/>
<path fill="#6419DC" opacity="1.000000" stroke="none" 
	d="
M455.255707,204.020294 
	C455.255768,200.222229 455.255768,196.915726 455.255768,192.645111 
	C457.366791,193.374191 458.909576,193.907013 461.055298,194.648071 
	C464.029938,192.440262 468.061554,191.438889 472.159058,194.277939 
	C472.732635,194.675339 472.238312,196.614044 472.238312,198.314865 
	C464.769196,192.931915 459.245789,198.302856 459.244781,204.265793 
	C459.244110,208.245987 459.244629,212.226181 459.244629,216.329575 
	C456.502899,217.650391 455.151855,217.171265 455.238892,213.978165 
	C455.324829,210.824921 455.256378,207.667465 455.255707,204.020294 
z"/>
<path fill="#6110DB" opacity="1.000000" stroke="none" 
	d="
M113.280533,203.054123 
	C113.280602,200.594437 113.280602,198.623291 113.280602,196.740082 
	C111.026199,196.085434 109.089661,195.523087 107.153114,194.960724 
	C107.287750,194.419678 107.422386,193.878616 107.557014,193.337555 
	C110.588272,193.337555 113.619522,193.337555 117.150208,193.337555 
	C117.150208,200.128082 117.150208,206.858536 117.150208,213.239304 
	C119.570686,213.985870 121.427986,214.558731 123.285286,215.131592 
	C123.126930,215.665390 122.968567,216.199188 122.810211,216.732986 
	C117.584267,216.732986 112.358315,216.732986 107.132370,216.732986 
	C106.989876,216.162750 106.847389,215.592514 106.704895,215.022293 
	C108.612801,214.506500 110.520699,213.990723 113.280457,213.244644 
	C113.280457,210.368210 113.280457,206.955429 113.280533,203.054123 
z"/>
<path fill="#FCFCFE" opacity="1.000000" stroke="none" 
	d="
M378.230774,79.999802 
	C377.844208,85.961082 377.879059,91.499069 376.935608,96.865028 
	C376.194244,101.081398 374.443329,105.526558 369.189514,105.975784 
	C364.742981,106.355980 358.630768,100.762276 358.487854,95.894875 
	C358.175720,85.262634 358.209473,74.608559 358.516785,63.975384 
	C358.645721,59.513275 364.755219,53.915527 369.001801,54.192329 
	C373.928314,54.513451 376.130280,58.539520 376.861389,62.644886 
	C377.845337,68.170082 377.821625,73.874718 378.230774,79.999802 
z"/>
<path fill="#FCFCFE" opacity="1.000000" stroke="none" 
	d="
M275.591858,57.716393 
	C278.240387,56.437515 281.061798,54.141376 282.973602,54.741741 
	C287.131744,56.047516 291.684357,58.367188 291.812012,63.707325 
	C292.070068,74.499374 291.995636,85.304832 291.793152,96.099777 
	C291.711304,100.463463 286.481934,105.554520 281.992889,105.958511 
	C277.143768,106.394897 274.760864,102.586990 274.054688,99.086273 
	C271.287567,85.368973 269.980347,71.540657 275.591858,57.716393 
z"/>
<path fill="#F7F5FD" opacity="1.000000" stroke="none" 
	d="
M188.362289,209.448669 
	C191.674637,203.465164 196.946686,205.445496 201.678589,205.025772 
	C201.778885,210.837387 199.373215,214.072876 194.720505,214.382324 
	C191.502014,214.596375 188.092422,214.618668 188.362289,209.448669 
z"/>
<path fill="#F7F6FD" opacity="1.000000" stroke="none" 
	d="
M295.812836,194.016693 
	C295.812775,191.743454 295.812775,189.942703 295.812775,187.602798 
	C300.264618,187.502640 304.773560,186.204498 307.894043,189.958435 
	C309.017334,191.309769 309.067841,195.721283 308.285645,196.116013 
	C304.729004,197.910919 300.700989,198.771820 296.201935,200.167374 
	C296.006989,197.321884 295.909943,195.905533 295.812836,194.016693 
z"/>
<path fill="#F5F3FD" opacity="1.000000" stroke="none" 
	d="
M84.604843,202.543549 
	C85.800697,199.100677 86.847801,196.020401 88.308350,191.723862 
	C89.903725,196.375366 91.107071,199.883850 92.687408,204.491501 
	C89.354500,203.849579 86.905296,203.377869 84.604843,202.543549 
z"/>
<path fill="#F6F4FD" opacity="1.000000" stroke="none" 
	d="
M352.959167,205.573212 
	C356.293518,205.252823 359.243500,205.100586 362.206177,204.947693 
	C362.264313,210.581726 360.181793,213.985123 355.851471,214.257462 
	C353.628967,214.397263 350.231171,213.392960 349.256104,211.769562 
	C347.739288,209.244141 349.520203,206.722717 352.959167,205.573212 
z"/>
<path fill="#F5F3FD" opacity="1.000000" stroke="none" 
	d="
M219.309418,214.500519 
	C217.629715,213.228851 215.198624,211.934692 215.286545,210.843506 
	C215.424927,209.125931 216.945297,206.595551 218.439117,206.102890 
	C221.590759,205.063461 225.104095,205.120773 228.538956,204.719940 
	C228.543320,211.636963 226.371628,213.874680 219.309418,214.500519 
z"/>
<path fill="#FAFAFE" opacity="1.000000" stroke="none" 
	d="
M429.322937,209.111740 
	C429.151215,206.416534 428.317719,203.629242 429.316986,201.902618 
	C430.714996,199.486954 433.320526,196.591476 435.708282,196.293182 
	C437.684540,196.046310 441.051544,198.834412 442.050934,201.063187 
	C443.125366,203.459229 442.942902,207.086334 441.925110,209.620575 
	C439.451080,215.780869 433.724152,215.569565 429.322937,209.111740 
z"/>
</svg>