<svg version="1.1" id="Layer_1" xmlns="http://www.w3.org/2000/svg" xmlns:xlink="http://www.w3.org/1999/xlink" x="0px" y="0px"
	 width="100%" viewBox="0 0 639 186" enable-background="new 0 0 639 186" xml:space="preserve">
<path fill="#FEFEFF" opacity="1.000000" stroke="none" 
	d="
M544.000000,1.000005 
	C575.991150,1.000000 607.982300,1.000000 639.980103,0.999998 
	C639.986694,62.974007 639.986694,124.948021 639.986694,186.961014 
	C427.084900,186.961014 214.169785,186.961014 1.127331,186.961014 
	C1.127331,125.102264 1.127331,63.204178 1.127331,1.000000 
	C158.687424,1.000000 316.375061,1.000000 474.521606,1.347945 
	C468.540314,6.266756 462.100098,10.837622 455.663300,15.406054 
	C463.267670,25.819662 465.472992,32.484501 464.154053,40.465965 
	C455.201965,43.064426 455.203125,43.064419 455.275421,52.577133 
	C455.285278,53.873749 455.276794,55.170502 455.276794,56.775303 
	C458.605316,56.929710 461.517517,57.064804 464.598328,57.207718 
	C464.708862,58.087948 464.856689,58.719124 464.857361,59.350456 
	C464.873016,74.183449 464.824829,89.016739 464.913940,103.849220 
	C464.932800,106.987556 465.001160,110.241180 465.803314,113.239250 
	C469.292847,126.281357 478.777893,134.125717 490.042938,140.264389 
	C490.756012,140.652969 492.088593,140.766907 492.693970,140.358261 
	C499.129761,136.014069 505.476685,131.538132 512.204651,126.849945 
	C509.366455,125.314911 507.109406,124.268906 505.033478,122.939980 
	C497.637024,118.205116 490.914215,112.133209 490.373596,103.160538 
	C489.457245,87.952751 490.121796,72.649719 490.121796,56.919647 
	C497.075592,56.919647 503.823975,56.919647 510.679504,56.919647 
	C510.679504,50.202930 510.679504,43.958199 510.679504,37.185879 
	C503.692047,37.185879 496.944763,37.185879 489.558838,37.185879 
	C490.809052,22.918303 486.868927,10.860129 477.000000,1.000000 
	C495.020905,1.000000 513.041809,1.000000 531.377991,1.297057 
	C528.863770,4.163703 525.978699,6.675449 523.221558,9.320523 
	C520.868591,11.577812 520.880371,14.018325 523.338989,16.194288 
	C526.820312,19.275434 530.433228,22.207571 533.932617,25.268803 
	C536.371033,27.401863 538.759338,27.121769 541.085449,25.241056 
	C544.445251,22.524611 547.734375,19.720465 551.044250,16.942476 
	C554.398560,14.127213 554.636230,11.351346 551.209045,8.288404 
	C548.666016,6.015621 546.393188,3.440473 544.000000,1.000005 
M115.497993,40.045551 
	C114.016304,38.063343 112.534615,36.081131 111.053955,34.100296 
	C103.095589,39.670162 96.371719,44.376038 89.336136,49.300064 
	C96.955315,55.631496 98.703072,63.648491 98.809364,72.205025 
	C98.943916,83.036255 98.510201,93.887733 99.047089,104.694427 
	C99.269211,109.165474 100.157570,114.588799 102.873787,117.745567 
	C108.540359,124.331245 115.417130,129.953049 122.209503,135.461853 
	C125.927963,138.477600 130.382736,137.784485 134.266312,134.949280 
	C137.149902,132.844101 139.946594,130.619873 142.843597,128.401505 
	C142.843597,136.576111 143.195953,144.401657 142.714996,152.175644 
	C142.413589,157.047226 138.775497,160.180588 134.381607,161.891769 
	C130.258575,163.497482 128.530945,159.695007 126.264664,157.499893 
	C124.399666,155.693466 122.860420,153.550720 120.987762,151.333145 
	C114.378487,155.847702 108.119293,160.123123 101.747566,164.475418 
	C106.050888,171.986023 112.293343,176.817474 119.093727,181.166931 
	C127.864037,186.776321 135.809601,186.964508 144.831451,180.646667 
	C160.315369,169.803574 169.411743,157.138168 168.534103,136.765945 
	C167.158142,104.827126 168.187317,72.784683 168.197784,40.786125 
	C168.198151,39.670921 168.197845,38.555717 168.197845,37.378784 
	C159.678711,37.378784 151.648758,37.378784 143.335281,37.378784 
	C143.335281,39.572323 143.335281,41.386086 143.335266,43.199848 
	C143.335205,63.032307 143.346069,82.864777 143.326294,102.697220 
	C143.322144,106.862358 137.441177,113.586998 133.609360,113.917313 
	C129.974655,114.230637 124.482231,108.595451 123.916664,103.874619 
	C123.739197,102.393265 123.779289,100.881813 123.777657,99.384071 
	C123.765671,88.384575 123.822517,77.384697 123.749840,66.385651 
	C123.688095,57.043751 121.842834,48.199768 115.497993,40.045551 
M383.473846,180.951385 
	C384.930176,182.770325 386.386505,184.589264 387.900085,186.479721 
	C395.524139,181.154129 402.302216,176.419495 409.402191,171.459976 
	C396.256195,160.226044 400.962585,145.453461 399.876007,131.000656 
	C403.477448,133.658890 406.158600,135.865829 409.059052,137.732010 
	C415.421417,141.825653 418.673889,142.085510 424.323883,137.166702 
	C430.435303,131.846130 436.286469,126.035187 441.240784,119.653725 
	C443.911865,116.213142 445.354614,111.219299 445.794281,106.772278 
	C446.676819,97.846359 446.920349,88.800209 446.615479,79.831284 
	C446.352905,72.107773 447.246307,63.646858 441.980774,57.230011 
	C436.216431,50.205307 429.543121,43.894966 422.979034,37.571117 
	C419.618591,34.333672 415.463135,34.195293 411.526428,36.934135 
	C406.387268,40.509552 401.320160,44.188564 396.315521,47.756344 
	C393.248932,43.552498 390.142731,39.294353 386.822052,34.742149 
	C379.516083,39.831425 372.723389,44.563141 365.670105,49.476395 
	C373.742828,57.440250 375.051605,67.335220 375.023285,77.734184 
	C374.953369,103.396645 374.982269,129.059433 375.010498,154.722061 
	C375.020813,164.095093 377.011688,172.884521 383.473846,180.951385 
M66.682106,16.799068 
	C63.155361,14.303025 59.799416,11.508860 56.067562,9.370818 
	C47.354759,4.379109 38.564789,3.124150 30.109688,10.111327 
	C23.828880,15.301696 17.254011,20.187984 11.404591,25.826427 
	C8.548244,28.579748 6.304546,32.497822 5.064209,36.305824 
	C-0.006571,51.873802 4.838623,65.212013 18.745237,73.691971 
	C28.528482,79.657585 38.712173,84.969780 48.752987,90.508614 
	C56.296371,94.669785 56.893402,99.334869 54.695145,107.485870 
	C52.570171,115.365112 41.973892,118.082733 36.545189,112.055260 
	C31.406412,106.349693 27.163731,99.837044 22.280682,93.352310 
	C16.265448,97.448624 9.464930,102.079704 2.520795,106.808586 
	C8.354698,122.845390 19.593388,132.866791 34.181576,139.560532 
	C40.572311,142.492905 47.041325,141.955338 52.656307,137.801926 
	C59.864933,132.469681 67.160095,127.102104 73.573036,120.879036 
	C85.918785,108.898827 84.475853,87.410889 71.032646,76.871391 
	C66.853806,73.595169 62.418720,70.600250 57.881382,67.837082 
	C50.360226,63.256809 42.534073,59.171085 35.079201,54.490326 
	C29.576569,51.035336 27.975199,44.244663 30.607710,38.283340 
	C33.946911,30.721729 43.493702,28.577587 48.816143,34.700958 
	C53.849438,40.491665 58.052830,47.003719 62.797928,53.438103 
	C68.275070,49.646660 74.363663,45.604053 80.199348,41.224464 
	C81.182663,40.486500 81.759178,38.077435 81.358521,36.808285 
	C78.823624,28.778376 73.453102,22.681002 66.682106,16.799068 
M351.123077,79.500015 
	C351.123077,65.557716 351.123077,51.615421 351.123077,37.193245 
	C347.977142,37.193245 345.349548,37.193256 342.721924,37.193249 
	C332.678528,37.193218 332.682129,37.193924 330.743866,47.023239 
	C330.697357,47.259109 330.332062,47.432110 330.115845,47.629910 
	C325.425018,44.264599 320.734863,40.898304 316.043152,37.534252 
	C311.119751,34.004116 306.314484,34.391113 301.994781,38.420345 
	C296.895081,43.177166 291.479004,47.764870 287.264923,53.244743 
	C284.162354,57.279263 281.216064,62.531742 280.911316,67.410835 
	C280.053711,81.141327 280.179962,94.979042 280.832458,108.731117 
	C281.036926,113.040649 283.361938,117.828545 286.100677,121.307762 
	C290.591858,127.013237 295.930542,132.155655 301.436859,136.930008 
	C307.485626,142.174713 311.024811,142.052841 317.399261,137.282394 
	C322.022461,133.822495 326.376434,130.002853 330.746002,126.429085 
	C334.729248,131.213531 338.699707,135.982620 342.840515,140.956284 
	C348.884125,135.686386 354.225128,131.029144 360.078369,125.925247 
	C352.064941,121.381905 350.648621,114.487488 351.029907,106.482010 
	C351.441498,97.839470 351.123077,89.162163 351.123077,79.500015 
M215.771088,136.067688 
	C215.771317,115.250732 216.164612,94.422310 215.557785,73.623062 
	C215.346405,66.378334 219.110641,63.024635 224.179916,60.028301 
	C225.447327,59.279167 227.825684,59.394463 229.227798,60.073677 
	C233.925934,62.349545 236.304565,66.131248 236.321289,71.630165 
	C236.368881,87.274048 236.404587,102.929451 237.050659,118.555283 
	C237.383270,126.599831 241.142563,133.591965 247.077896,139.130585 
	C248.124344,140.107101 250.668625,140.950943 251.571213,140.372833 
	C257.945160,136.290298 264.070953,131.820328 270.810242,127.099716 
	C261.935730,120.120201 261.106720,110.745041 261.143921,101.050217 
	C261.183533,90.725121 260.865356,80.389175 261.245728,70.077965 
	C261.529510,62.385162 258.996613,55.901512 253.918335,50.573975 
	C249.696884,46.145344 244.962280,42.098789 240.001160,38.510399 
	C234.254501,34.353813 229.913254,34.759560 224.007767,39.147411 
	C220.092529,42.056492 216.352646,45.201618 212.934982,47.922089 
	C209.333817,43.565422 205.995956,39.527287 202.472626,35.264774 
	C195.135681,40.487263 188.413177,45.272381 181.342682,50.305206 
	C189.530334,56.945053 190.860504,65.707420 190.868042,74.932594 
	C190.884125,94.583878 190.874542,114.235184 190.875443,133.886475 
	C190.875534,135.637070 190.875458,137.387665 190.875458,139.474167 
	C198.706223,139.474167 205.849106,139.566666 212.983536,139.363388 
	C213.932938,139.336349 214.839569,137.808182 215.771088,136.067688 
M607.448792,63.878365 
	C605.813416,66.427925 604.178040,68.977486 602.340210,71.842651 
	C592.934326,61.508678 590.768616,49.833813 591.543213,37.568649 
	C582.813965,37.568649 574.906006,37.568649 566.178589,37.568649 
	C566.868408,45.099522 565.965088,52.825695 568.540955,59.130451 
	C572.168518,68.009323 578.374756,75.834671 584.041870,85.024132 
	C565.651428,97.885750 563.917053,117.583015 566.286438,138.768372 
	C574.234680,138.768372 582.153625,138.768372 590.487671,138.768372 
	C590.962402,123.797684 588.141235,107.962532 602.034973,96.934174 
	C615.981018,108.168625 613.267517,123.883720 613.820374,138.775513 
	C622.138733,138.775513 630.068298,138.775513 637.887878,138.775513 
	C640.833313,117.355179 637.551270,98.098793 618.599792,84.030083 
	C631.816345,70.689751 640.634460,56.503117 636.896545,37.462341 
	C629.050232,37.462341 621.138672,37.462341 614.590637,37.462341 
	C612.238098,46.460991 610.043762,54.854542 607.448792,63.878365 
M552.867615,131.388794 
	C554.860901,129.978210 556.854187,128.567642 559.213867,126.897728 
	C551.350952,120.481171 549.738159,112.243729 549.784180,103.257210 
	C549.886536,83.272308 549.811279,63.286488 549.808472,43.301041 
	C549.808228,41.534534 549.808472,39.768028 549.808472,37.931335 
	C541.177063,37.931335 533.154785,37.931335 525.004822,37.931335 
	C525.004822,64.145935 524.665955,89.955223 525.172302,115.747910 
	C525.373596,126.003960 529.799805,134.951050 538.489502,141.391891 
	C543.282837,138.065521 547.786194,134.940384 552.867615,131.388794 
z"/>
<path fill="#5B04D9" opacity="1.000000" stroke="none" 
	d="
M476.666687,1.000000 
	C486.868927,10.860129 490.809052,22.918303 489.558838,37.185879 
	C496.944763,37.185879 503.692047,37.185879 510.679504,37.185879 
	C510.679504,43.958199 510.679504,50.202930 510.679504,56.919647 
	C503.823975,56.919647 497.075592,56.919647 490.121796,56.919647 
	C490.121796,72.649719 489.457245,87.952751 490.373596,103.160538 
	C490.914215,112.133209 497.637024,118.205116 505.033478,122.939980 
	C507.109406,124.268906 509.366455,125.314911 512.204651,126.849945 
	C505.476685,131.538132 499.129761,136.014069 492.693970,140.358261 
	C492.088593,140.766907 490.756012,140.652969 490.042938,140.264389 
	C478.777893,134.125717 469.292847,126.281357 465.803314,113.239250 
	C465.001160,110.241180 464.932800,106.987556 464.913940,103.849220 
	C464.824829,89.016739 464.873016,74.183449 464.857361,59.350456 
	C464.856689,58.719124 464.708862,58.087948 464.598328,57.207718 
	C461.517517,57.064804 458.605316,56.929710 455.276794,56.775303 
	C455.276794,55.170502 455.285278,53.873749 455.275421,52.577133 
	C455.203125,43.064419 455.201965,43.064426 464.154053,40.465965 
	C465.472992,32.484501 463.267670,25.819662 455.663300,15.406054 
	C462.100098,10.837622 468.540314,6.266756 474.990265,1.347945 
	C475.444458,1.000000 475.888885,1.000000 476.666687,1.000000 
z"/>
<path fill="#5A03D9" opacity="1.000000" stroke="none" 
	d="
M543.539368,1.000005 
	C546.393188,3.440473 548.666016,6.015621 551.209045,8.288404 
	C554.636230,11.351346 554.398560,14.127213 551.044250,16.942476 
	C547.734375,19.720465 544.445251,22.524611 541.085449,25.241056 
	C538.759338,27.121769 536.371033,27.401863 533.932617,25.268803 
	C530.433228,22.207571 526.820312,19.275434 523.338989,16.194288 
	C520.880371,14.018325 520.868591,11.577812 523.221558,9.320523 
	C525.978699,6.675449 528.863770,4.163703 531.846680,1.297057 
	C535.692932,1.000000 539.385803,1.000000 543.539368,1.000005 
z"/>
<path fill="#5B03D9" opacity="1.000000" stroke="none" 
	d="
M115.724113,40.323586 
	C121.842834,48.199768 123.688095,57.043751 123.749840,66.385651 
	C123.822517,77.384697 123.765671,88.384575 123.777657,99.384071 
	C123.779289,100.881813 123.739197,102.393265 123.916664,103.874619 
	C124.482231,108.595451 129.974655,114.230637 133.609360,113.917313 
	C137.441177,113.586998 143.322144,106.862358 143.326294,102.697220 
	C143.346069,82.864777 143.335205,63.032307 143.335266,43.199848 
	C143.335281,41.386086 143.335281,39.572323 143.335281,37.378784 
	C151.648758,37.378784 159.678711,37.378784 168.197845,37.378784 
	C168.197845,38.555717 168.198151,39.670921 168.197784,40.786125 
	C168.187317,72.784683 167.158142,104.827126 168.534103,136.765945 
	C169.411743,157.138168 160.315369,169.803574 144.831451,180.646667 
	C135.809601,186.964508 127.864037,186.776321 119.093727,181.166931 
	C112.293343,176.817474 106.050888,171.986023 101.747566,164.475418 
	C108.119293,160.123123 114.378487,155.847702 120.987762,151.333145 
	C122.860420,153.550720 124.399666,155.693466 126.264664,157.499893 
	C128.530945,159.695007 130.258575,163.497482 134.381607,161.891769 
	C138.775497,160.180588 142.413589,157.047226 142.714996,152.175644 
	C143.195953,144.401657 142.843597,136.576111 142.843597,128.401505 
	C139.946594,130.619873 137.149902,132.844101 134.266312,134.949280 
	C130.382736,137.784485 125.927963,138.477600 122.209503,135.461853 
	C115.417130,129.953049 108.540359,124.331245 102.873787,117.745567 
	C100.157570,114.588799 99.269211,109.165474 99.047089,104.694427 
	C98.510201,93.887733 98.943916,83.036255 98.809364,72.205025 
	C98.703072,63.648491 96.955315,55.631496 89.336136,49.300064 
	C96.371719,44.376038 103.095589,39.670162 111.053955,34.100296 
	C112.534615,36.081131 114.016304,38.063343 115.724113,40.323586 
z"/>
<path fill="#5A02D9" opacity="1.000000" stroke="none" 
	d="
M383.243805,180.679169 
	C377.011688,172.884521 375.020813,164.095093 375.010498,154.722061 
	C374.982269,129.059433 374.953369,103.396645 375.023285,77.734184 
	C375.051605,67.335220 373.742828,57.440250 365.670105,49.476395 
	C372.723389,44.563141 379.516083,39.831425 386.822052,34.742149 
	C390.142731,39.294353 393.248932,43.552498 396.315521,47.756344 
	C401.320160,44.188564 406.387268,40.509552 411.526428,36.934135 
	C415.463135,34.195293 419.618591,34.333672 422.979034,37.571117 
	C429.543121,43.894966 436.216431,50.205307 441.980774,57.230011 
	C447.246307,63.646858 446.352905,72.107773 446.615479,79.831284 
	C446.920349,88.800209 446.676819,97.846359 445.794281,106.772278 
	C445.354614,111.219299 443.911865,116.213142 441.240784,119.653725 
	C436.286469,126.035187 430.435303,131.846130 424.323883,137.166702 
	C418.673889,142.085510 415.421417,141.825653 409.059052,137.732010 
	C406.158600,135.865829 403.477448,133.658890 399.876007,131.000656 
	C400.962585,145.453461 396.256195,160.226044 409.402191,171.459976 
	C402.302216,176.419495 395.524139,181.154129 387.900085,186.479721 
	C386.386505,184.589264 384.930176,182.770325 383.243805,180.679169 
M408.859619,60.041985 
	C404.857330,62.425034 400.416901,64.494255 400.402649,70.153732 
	C400.372528,82.129539 400.195129,94.111732 400.531769,106.078545 
	C400.677155,111.245720 407.129395,116.851753 412.244568,117.258965 
	C415.826630,117.544128 419.404510,113.820877 421.176300,107.937126 
	C421.463013,106.985168 421.867920,106.013939 421.887604,105.044907 
	C422.086456,95.248116 422.377502,85.448257 422.275085,75.653099 
	C422.241089,72.400826 421.645447,68.958183 420.432861,65.955391 
	C417.921356,59.735909 414.667389,58.128925 408.859619,60.041985 
z"/>
<path fill="#5A03D9" opacity="1.000000" stroke="none" 
	d="
M66.956169,17.024593 
	C73.453102,22.681002 78.823624,28.778376 81.358521,36.808285 
	C81.759178,38.077435 81.182663,40.486500 80.199348,41.224464 
	C74.363663,45.604053 68.275070,49.646660 62.797928,53.438103 
	C58.052830,47.003719 53.849438,40.491665 48.816143,34.700958 
	C43.493702,28.577587 33.946911,30.721729 30.607710,38.283340 
	C27.975199,44.244663 29.576569,51.035336 35.079201,54.490326 
	C42.534073,59.171085 50.360226,63.256809 57.881382,67.837082 
	C62.418720,70.600250 66.853806,73.595169 71.032646,76.871391 
	C84.475853,87.410889 85.918785,108.898827 73.573036,120.879036 
	C67.160095,127.102104 59.864933,132.469681 52.656307,137.801926 
	C47.041325,141.955338 40.572311,142.492905 34.181576,139.560532 
	C19.593388,132.866791 8.354698,122.845390 2.520795,106.808586 
	C9.464930,102.079704 16.265448,97.448624 22.280682,93.352310 
	C27.163731,99.837044 31.406412,106.349693 36.545189,112.055260 
	C41.973892,118.082733 52.570171,115.365112 54.695145,107.485870 
	C56.893402,99.334869 56.296371,94.669785 48.752987,90.508614 
	C38.712173,84.969780 28.528482,79.657585 18.745237,73.691971 
	C4.838623,65.212013 -0.006571,51.873802 5.064209,36.305824 
	C6.304546,32.497822 8.548244,28.579748 11.404591,25.826427 
	C17.254011,20.187984 23.828880,15.301696 30.109688,10.111327 
	C38.564789,3.124150 47.354759,4.379109 56.067562,9.370818 
	C59.799416,11.508860 63.155361,14.303025 66.956169,17.024593 
z"/>
<path fill="#5A03D9" opacity="1.000000" stroke="none" 
	d="
M351.123077,80.000015 
	C351.123077,89.162163 351.441498,97.839470 351.029907,106.482010 
	C350.648621,114.487488 352.064941,121.381905 360.078369,125.925247 
	C354.225128,131.029144 348.884125,135.686386 342.840515,140.956284 
	C338.699707,135.982620 334.729248,131.213531 330.746002,126.429085 
	C326.376434,130.002853 322.022461,133.822495 317.399261,137.282394 
	C311.024811,142.052841 307.485626,142.174713 301.436859,136.930008 
	C295.930542,132.155655 290.591858,127.013237 286.100677,121.307762 
	C283.361938,117.828545 281.036926,113.040649 280.832458,108.731117 
	C280.179962,94.979042 280.053711,81.141327 280.911316,67.410835 
	C281.216064,62.531742 284.162354,57.279263 287.264923,53.244743 
	C291.479004,47.764870 296.895081,43.177166 301.994781,38.420345 
	C306.314484,34.391113 311.119751,34.004116 316.043152,37.534252 
	C320.734863,40.898304 325.425018,44.264599 330.115662,47.632172 
	C330.332062,47.432110 330.697357,47.259109 330.743866,47.023239 
	C332.682129,37.193924 332.678528,37.193218 342.721924,37.193249 
	C345.349548,37.193256 347.977142,37.193245 351.123077,37.193245 
	C351.123077,51.615421 351.123077,65.557716 351.123077,80.000015 
M321.727051,62.826992 
	C312.611267,56.444336 306.537323,58.951771 304.333374,70.008575 
	C304.268524,70.333969 304.173492,70.662834 304.173035,70.990196 
	C304.157654,82.262527 303.741364,93.558311 304.383118,104.793587 
	C304.588379,108.386688 307.201385,112.118896 309.509094,115.188782 
	C310.534210,116.552483 313.710175,117.243782 315.605988,116.834129 
	C321.658661,115.526237 325.688049,110.584358 325.805939,104.439369 
	C326.019257,93.319176 326.111420,82.184944 325.739624,71.073784 
	C325.650970,68.424171 323.533844,65.842430 321.727051,62.826992 
z"/>
<path fill="#5A03D9" opacity="1.000000" stroke="none" 
	d="
M215.768539,136.521423 
	C214.839569,137.808182 213.932938,139.336349 212.983536,139.363388 
	C205.849106,139.566666 198.706223,139.474167 190.875458,139.474167 
	C190.875458,137.387665 190.875534,135.637070 190.875443,133.886475 
	C190.874542,114.235184 190.884125,94.583878 190.868042,74.932594 
	C190.860504,65.707420 189.530334,56.945053 181.342682,50.305206 
	C188.413177,45.272381 195.135681,40.487263 202.472626,35.264774 
	C205.995956,39.527287 209.333817,43.565422 212.934982,47.922089 
	C216.352646,45.201618 220.092529,42.056492 224.007767,39.147411 
	C229.913254,34.759560 234.254501,34.353813 240.001160,38.510399 
	C244.962280,42.098789 249.696884,46.145344 253.918335,50.573975 
	C258.996613,55.901512 261.529510,62.385162 261.245728,70.077965 
	C260.865356,80.389175 261.183533,90.725121 261.143921,101.050217 
	C261.106720,110.745041 261.935730,120.120201 270.810242,127.099716 
	C264.070953,131.820328 257.945160,136.290298 251.571213,140.372833 
	C250.668625,140.950943 248.124344,140.107101 247.077896,139.130585 
	C241.142563,133.591965 237.383270,126.599831 237.050659,118.555283 
	C236.404587,102.929451 236.368881,87.274048 236.321289,71.630165 
	C236.304565,66.131248 233.925934,62.349545 229.227798,60.073677 
	C227.825684,59.394463 225.447327,59.279167 224.179916,60.028301 
	C219.110641,63.024635 215.346405,66.378334 215.557785,73.623062 
	C216.164612,94.422310 215.771317,115.250732 215.768539,136.521423 
z"/>
<path fill="#5A03D9" opacity="1.000000" stroke="none" 
	d="
M607.649109,63.563225 
	C610.043762,54.854542 612.238098,46.460991 614.590637,37.462341 
	C621.138672,37.462341 629.050232,37.462341 636.896545,37.462341 
	C640.634460,56.503117 631.816345,70.689751 618.599792,84.030083 
	C637.551270,98.098793 640.833313,117.355179 637.887878,138.775513 
	C630.068298,138.775513 622.138733,138.775513 613.820374,138.775513 
	C613.267517,123.883720 615.981018,108.168625 602.034973,96.934174 
	C588.141235,107.962532 590.962402,123.797684 590.487671,138.768372 
	C582.153625,138.768372 574.234680,138.768372 566.286438,138.768372 
	C563.917053,117.583015 565.651428,97.885750 584.041870,85.024132 
	C578.374756,75.834671 572.168518,68.009323 568.540955,59.130451 
	C565.965088,52.825695 566.868408,45.099522 566.178589,37.568649 
	C574.906006,37.568649 582.813965,37.568649 591.543213,37.568649 
	C590.768616,49.833813 592.934326,61.508678 602.340210,71.842651 
	C604.178040,68.977486 605.813416,66.427925 607.649109,63.563225 
z"/>
<path fill="#5A03D9" opacity="1.000000" stroke="none" 
	d="
M552.578552,131.602020 
	C547.786194,134.940384 543.282837,138.065521 538.489502,141.391891 
	C529.799805,134.951050 525.373596,126.003960 525.172302,115.747910 
	C524.665955,89.955223 525.004822,64.145935 525.004822,37.931335 
	C533.154785,37.931335 541.177063,37.931335 549.808472,37.931335 
	C549.808472,39.768028 549.808228,41.534534 549.808472,43.301041 
	C549.811279,63.286488 549.886536,83.272308 549.784180,103.257210 
	C549.738159,112.243729 551.350952,120.481171 559.213867,126.897728 
	C556.854187,128.567642 554.860901,129.978210 552.578552,131.602020 
z"/>
<path fill="#FCFCFE" opacity="1.000000" stroke="none" 
	d="
M409.213928,59.875664 
	C414.667389,58.128925 417.921356,59.735909 420.432861,65.955391 
	C421.645447,68.958183 422.241089,72.400826 422.275085,75.653099 
	C422.377502,85.448257 422.086456,95.248116 421.887604,105.044907 
	C421.867920,106.013939 421.463013,106.985168 421.176300,107.937126 
	C419.404510,113.820877 415.826630,117.544128 412.244568,117.258965 
	C407.129395,116.851753 400.677155,111.245720 400.531769,106.078545 
	C400.195129,94.111732 400.372528,82.129539 400.402649,70.153732 
	C400.416901,64.494255 404.857330,62.425034 409.213928,59.875664 
z"/>
<path fill="#FCFCFE" opacity="1.000000" stroke="none" 
	d="
M322.038391,63.028236 
	C323.533844,65.842430 325.650970,68.424171 325.739624,71.073784 
	C326.111420,82.184944 326.019257,93.319176 325.805939,104.439369 
	C325.688049,110.584358 321.658661,115.526237 315.605988,116.834129 
	C313.710175,117.243782 310.534210,116.552483 309.509094,115.188782 
	C307.201385,112.118896 304.588379,108.386688 304.383118,104.793587 
	C303.741364,93.558311 304.157654,82.262527 304.173035,70.990196 
	C304.173492,70.662834 304.268524,70.333969 304.333374,70.008575 
	C306.537323,58.951771 312.611267,56.444336 322.038391,63.028236 
z"/>
</svg>